<svg id="flat" xmlns="http://www.w3.org/2000/svg" viewBox="0 0 340 340"><path d="M86.008 311.979s-70.86 12.976-69.81-56.834c.558-37.091 11.34-57.735 21.324-68.938a13.288 13.288 0 0 0 .583 2.2c6.5 19.045 34.482 14.98 35.823-5.1.563-8.426.154-19.407-2.092-33.643 0 0-3.149-46.212 30.443-63.534a56.38 56.38 0 0 0 .033 13.845c1.691 13.829 20.309 17.213 26.7 4.832a149.274 149.274 0 0 0 9.7-23.833 110.616 110.616 0 0 1 26.751-45.015c10.7-10.772 25.2-20.883 43.9-24.841 0 0-16.295 26.05-15.1 59.122.78 21.6 11.757 41.385 29.01 54.4 7.217 5.445 14.96 14.237 17.059 27.622a26.4 26.4 0 0 0 .776 3.048c5.339 17.332 30.507 14.2 31.6-3.9a87.871 87.871 0 0 0-.363-14.372s112.326 132.8-19.421 170.588Z" style="fill:#f74f73"/><path d="M125.8 315.589s-58.85 16.363-63.227-29.549c0 0-3.832-37.644 25.806-64.393 0 0-.019 11.879 8.582 10.334a9.932 9.932 0 0 0 7.933-8.629c1.318-10.621 5.912-34.982 20.905-45.477 0 0-.723 25.29 18.12 24.318 0 0 9.6-.973 10.088-14.591 0 0-2.918-23.831 3.891-37.936 0 0 6.323 19.455 26.749 24.8 0 0 41.968 12.466 55.234 56.6a7.247 7.247 0 0 0 13.609.766 27.8 27.8 0 0 0 1.679-13.6s46.2 57.39 2.918 86.571L234.255 298Z" style="fill:#fff"/><path d="M143.919 317.2s24.684 8.307 49.368 0v-55.3l-32.279-1.661ZM141.66 250.743a43.552 43.552 0 0 0-25.036-9.494s-20.65 38.213-28.245 59.1a53.893 53.893 0 0 0 26.641 11.63Z" style="fill:#d65238"/><path d="M145.8 234.045s14.677 2.07 26.155 11.478l-30.671 83.357s-22.651-2.868-31.306-10.018l8.929-24.736A50.97 50.97 0 0 0 121.79 279c.188-5.285-.043-11.752-1.769-16.162l7.339-7.15a19.544 19.544 0 0 1 5.645 8.279s10.913-19.761 12.795-29.922ZM204.917 250.98l-23.735 7.6s8.307 48.946 12.342 65.745c0 0 17.564.237 29.431-5.459 0-.004-9.915-49.15-18.038-67.886Z" style="fill:#f78659"/><path d="M194.474 249.794s11.867-11.156 24.446-13.292c0 0 34.536 49.557 44.03 71.868 0 0-8.487 12.589-29.1 15.4a10.521 10.521 0 0 1-11.189-6.448c-6.504-16.037-22.397-55.013-28.187-67.528Z" style="fill:#d65238"/><path d="M147.934 107.69a22.605 22.605 0 0 0-2.447 15.544 8.674 8.674 0 0 0 .543 1.474c4.835 10.506 20.6 5.842 19.484-5.67-.327-3.37-1.8-7.423-5.3-12.159a7.3 7.3 0 0 0-12.28.811Z" style="fill:#fff"/><path d="M239.867 86.052a16.5 16.5 0 0 0-4.146 6.619 17.545 17.545 0 0 0 4.1 17.255 30.894 30.894 0 0 0 4.528 4.079 7.423 7.423 0 0 0 11.073-2.706c3.087-6.357 5.195-16.588-5.735-25.7a7.348 7.348 0 0 0-9.82.453Z" style="fill:#f74f73"/><ellipse cx="314.731" cy="144.689" rx="9.082" ry="9.865" style="fill:#f74f73"/><path d="M61.22 60.6a16.865 16.865 0 0 0-8.9 9.408 11.517 11.517 0 0 0-.573 6.8 12.6 12.6 0 0 0 6.428 8.345 11.7 11.7 0 0 0 12.093-.439A17.384 17.384 0 0 0 77.6 74.543c2.632-9.624-7.32-18.114-16.38-13.943Z" style="fill:#f74f73"/><circle cx="42.502" cy="141.21" r="4.173" style="fill:#f74f73"/><circle cx="98.068" cy="183.401" r="4.173" style="fill:#fff"/><circle cx="134.544" cy="20.837" r="4.173" style="fill:#f74f73"/><circle cx="252.632" cy="188.384" r="4.173" style="fill:#fff"/><circle cx="286.282" cy="73.66" r="4.173" style="fill:#f74f73"/></svg>